<svg version="1" xmlns="http://www.w3.org/2000/svg" width="682.667" height="682.667" viewBox="0 0 512.000000 512.000000"><path d="M205.5 82.1C101.6 120 15.4 151.9 14 152.9c-3.9 2.8-7 8-7 11.7 0 1.8 4.3 14.9 9.5 29.1 6.1 16.7 11.8 34.6 16.1 50.8 3.7 13.7 7.3 26.2 8 27.7 1.7 3.4 5.9 5.6 11.9 6.5 2.5.3 4.5.7 4.5.9 0 1.8 55.4 206.8 56.7 209.7 2.5 5.7 9 11.2 15 12.6 5 1.2 5.7 1.1 76.4-17.9 39.3-10.5 118.4-31.7 175.9-47.1 57.5-15.4 106.7-28.7 109.3-29.5 9.7-3.2 15.2-10.7 15-20.9 0-4.6-6.8-31.1-28.1-110l-28-104 2.8-3.2c1.6-1.7 3.1-4.4 3.4-6 .5-1.9-1.7-11.6-6.8-30.7-4.1-15.3-7.6-28-7.8-28.1-.2-.2-77.2 20.4-171.3 45.6C74.6 202.4 93.4 197.4 94 196.7c.3-.3 76.1-28.1 168.5-61.7 92.4-33.7 168.1-61.4 168.3-61.5.5-.5-18.8-52.7-20.3-55.1-1.9-2.9-7.5-5.4-12.2-5.4-2.5.1-69.1 23.9-192.8 69.1zm194.3-58.8c1.2 1.4 17.5 45.7 17 46.1-1.4 1.2-10 3.7-11.1 3.3-3.4-1.3-49.8-36-49-36.7 1.5-1.5 36.8-13.9 39.4-14 1.5 0 3.1.6 3.7 1.3zm-65.5 48.5c13 9.6 23.9 17.7 24.2 18.1.5.9-44.1 17.5-45.3 16.9-2.9-1.2-49.9-36.4-49.4-37 1.6-1.5 44.8-16.6 45.8-16 .6.4 11.7 8.5 24.7 18zm-93.2 33.4c13.7 10 24.9 18.5 24.9 18.9 0 .3-10.3 4.3-22.9 8.9l-22.9 8.2-25.2-18.3c-17.8-13.1-24.8-18.6-23.8-19.2 1.4-.9 42.6-16.4 44.1-16.6.5 0 12.1 8.1 25.8 18.1zM438 138.1c3.3 12.4 6 23.5 6 24.7 0 1.2-1 2.8-2.2 3.6-2.3 1.3-40.7 12-41.3 11.4-.2-.2 4.3-13.6 9.9-29.8l10.1-29.4 5.5-1.7c3-.9 5.6-1.6 5.7-1.5.1.1 3 10.3 6.3 22.7zm-289.7 1.4c13.5 9.9 24.7 18.2 24.7 18.5 0 .6-42.8 16.3-44.5 16.3-1.2 0-50.4-35.5-50.5-36.4 0-.7 43.1-16.8 44.5-16.6.6.1 12.2 8.3 25.8 18.2zM362.5 161c-5.2 15.6-10 28.9-10.5 29.4-.9.9-46.1 13.6-46.8 13.1-.3-.3 19.6-58.7 20.3-59.3.9-.9 46-12.8 46.3-12.2.1.4-4 13.4-9.3 29zM56.2 173.2c13.7 9.9 24.5 18.4 24.1 18.8-.7.7-41.2 15.5-44.1 16.2-1.8.4-17.4-41.5-17-45.7.2-2.4 1.1-3.4 4.8-5.2 2.5-1.2 5.1-2.2 5.9-2.3.7 0 12.6 8.2 26.3 18.2zm220.6-15c-.3.7-4.6 13.7-9.7 28.8-5 15.1-9.5 28-9.9 28.6-.6.9-44.9 13.4-47.4 13.4-.7 0 18.6-57.7 19.7-58.9.6-.6 43.9-12.8 46.4-13 .7 0 1.1.5.9 1.1zm161.1 22c3.6 11.4 55.1 205.9 55.1 208.1 0 4.3-1.6 6.4-6.2 8.1-6.9 2.5-351.4 94.6-354 94.6-3.2 0-6.3-2.3-7.6-5.7-1.2-3-56.2-207.8-56.2-209.2 0-.9 4.1-2.3 4.7-1.7.2.2 13.1 47.9 28.7 106s28.6 105.9 28.8 106.2c.3.2 52.6-13.6 116.4-30.7 63.7-17.1 144-38.6 178.3-47.8 34.4-9.2 62.6-17.2 62.8-17.7.1-.5-12.5-48.4-28.1-106.4-19.3-71.9-27.9-105.7-27.2-106.2 2.2-1.5 3.5-.8 4.5 2.4zm-257.1 4c-.3.7-4.6 13.8-9.7 29s-9.8 28.1-10.4 28.6c-2 1.5-45.7 13-45.7 11.9 0-.7 19-57.6 19.5-58.4.3-.4 43.9-12.2 45.4-12.2.7-.1 1.1.5.9 1.1zm238 17.9c-.2.7-25.9 8-57.1 16.4-31.2 8.4-56.9 15.4-57.2 15.6-.4.5 17 66.8 17.7 67.4.2.1 25.9-6.7 57.3-15.1 34.4-9.2 57.4-14.9 57.9-14.4.6.6 0 1.3-1.5 1.8-1.3.6-35.7 9.9-76.4 20.7-40.7 10.9-74.4 20.2-74.9 20.6-.6.5 1 7.9 3.7 18.1 2.6 9.5 6.6 24.5 9 33.3 2.9 10.9 4.7 16.1 5.7 16.2.8.2 35.5-8.9 77-20.1 65.4-17.6 79.7-21 76.8-18.1-1.3 1.4-320.4 86.2-321.2 85.5-.5-.5.1-1.3 1.5-1.9 1.3-.6 38-10.6 81.4-22.2 43.5-11.6 79.3-21.4 79.7-21.7.6-.6-6.8-30.7-7.8-32-.1-.2-36.4 9.4-80.7 21.2-44.2 11.9-81.1 21.6-82 21.6-2.2 0-2.2-1.7.1-2.4.9-.3 36.3-9.8 78.7-21.1 42.4-11.3 78.4-21 80.1-21.6l3.1-.9-4.4-16.2c-2.4-9-4.6-16.4-4.8-16.6-.2-.2-36.5 9.4-80.8 21.2-44.2 11.9-81.1 21.6-82 21.6-2.2 0-2.2-1.7.1-2.4.9-.3 17-4.6 35.7-9.6 18.7-5 34.1-9.3 34.3-9.4.3-.4-17.4-66.6-18-67.1-.2-.3-16.3 3.8-35.8 9.1-23.3 6.2-35.7 9.1-36.3 8.5-.7-.7-.6-1.2.4-1.6 3.4-1.3 317.6-85.4 319.2-85.4 1-.1 1.7.4 1.5 1zm-341.9 35c-5.5 16-10.2 29.5-10.4 29.9-.8 1.3-10.2 3.2-12.3 2.6-1.1-.4-2.5-1.9-3.1-3.4-2.1-5.2-12.2-44.4-11.6-45.1.6-.6 43.8-12.8 46.2-13 .6-.1-3.2 12.7-8.8 29zM467 380c0 .5-1.2 1.3-2.7 1.6-1.6.4-73.7 19.7-160.3 43-138.3 37.1-162.2 43.1-158.9 40 .8-.8 316.5-85.4 319.2-85.5 1.5 0 2.7.3 2.7.9z"/><path d="M282 239.7c-9.1 2.5-16.7 4.7-16.9 4.9-.4.4 16.8 66.3 17.6 67.3.6.8 36.3-9.3 36.3-10.3-.1-.6-4-15.7-8.9-33.6-6.1-22.9-9.2-32.5-10.2-32.6-.8-.1-8.8 1.8-17.9 4.3zM217.6 257.1c-24.1 6.5-44 12-44.3 12.3-.5.5 16.6 65.7 17.6 66.8.5.6 87.5-22.3 88.5-23.3.4-.4-17.1-67.1-17.7-67.5-.1 0-19.9 5.2-44.1 11.7z"/></svg>